<?xml version="1.0" encoding="UTF-8"?>
<svg xmlns="http://www.w3.org/2000/svg" xmlns:xlink="http://www.w3.org/1999/xlink" width="100pt" height="123pt" viewBox="0 0 100 123" version="1.1">
<g id="surface1">
<path style=" stroke:none;fill-rule:nonzero;fill:rgb(100%,100%,100%);fill-opacity:1;" d="M 0.648438 51.519531 C 0.609375 68.839844 9.804688 84.652344 21.125 97.1875 C 29.621094 106.667969 39.597656 114.84375 50.003906 122.207031 C 66.851562 110.171875 83.035156 96.09375 92.703125 77.496094 C 97.503906 68.347656 99.863281 58.015625 99.359375 47.644531 C 99.359375 31.980469 99.359375 16.3125 99.359375 0.644531 C 66.457031 0.644531 33.554688 0.644531 0.648438 0.644531 C 0.648438 17.605469 0.648438 34.5625 0.648438 51.519531 Z M 0.648438 51.519531 "/>
<path style=" stroke:none;fill-rule:nonzero;fill:rgb(0%,20%,50.196078%);fill-opacity:1;" d="M 0 0 L 0 51.519531 C 0 86.359375 35.859375 112.960938 50 123 C 64.140625 112.960938 100 86.359375 100 51.519531 L 100 0 Z M 7.410156 6.710938 L 15.515625 6.710938 C 19.527344 6.710938 25.152344 6.71875 25.152344 12.375 C 25.152344 18.03125 19.511719 18.042969 15.515625 18.042969 C 15.515625 20.097656 15.476562 22.695312 16.703125 22.820312 C 18.910156 23.046875 18.621094 25.777344 16.703125 25.777344 L 8.386719 25.777344 C 6.503906 25.777344 6.238281 23.019531 8.386719 22.882812 C 9.855469 22.789062 10.039062 20.148438 10.039062 18.042969 L 10.039062 12.75 C 10.039062 11.15625 9.460938 9.328125 7.410156 9.328125 Z M 26.742188 6.710938 L 43.226562 6.710938 L 43.226562 11.613281 L 41.964844 11.613281 C 38.375 11.613281 39.699219 9.667969 37.46875 9.667969 L 34.839844 9.667969 L 34.839844 14.507812 C 38.660156 14.507812 36.324219 13.203125 39.34375 13.203125 L 39.34375 18.042969 C 36.324219 18.042969 38.660156 16.734375 34.839844 16.734375 L 34.839844 22.882812 L 37.46875 22.882812 C 39.699219 22.882812 38.375 20.9375 41.964844 20.9375 L 43.226562 20.9375 C 43.226562 26.304688 42.316406 25.777344 38.953125 25.777344 L 26.742188 25.777344 L 26.742188 23.164062 C 29.082031 23.164062 29.363281 20.148438 29.363281 18.042969 L 29.363281 12.75 C 29.363281 11.15625 28.796875 9.328125 26.742188 9.328125 Z M 47.046875 6.710938 L 53.488281 6.710938 L 60.082031 15.65625 C 61.089844 17.023438 61.238281 16.03125 61.238281 15.464844 C 61.238281 14.582031 61.472656 9.667969 59.121094 9.667969 C 58.5625 9.667969 58.046875 9.15625 58.054688 8.683594 C 58.066406 8.046875 58.054688 6.710938 58.054688 6.710938 L 67.691406 6.710938 C 67.691406 6.710938 67.679688 8.046875 67.691406 8.683594 C 67.699219 9.15625 67.171875 9.667969 66.613281 9.667969 C 65.070312 9.667969 65.121094 14.582031 65.121094 15.464844 L 65.121094 25.074219 C 65.121094 25.507812 64.84375 25.777344 64.414062 25.777344 C 63.988281 25.777344 61.925781 25.820312 61.925781 25.820312 C 60.511719 25.820312 59.5 24.542969 58.832031 23.644531 C 57.050781 21.265625 55.6875 19.371094 53.890625 16.933594 L 53.890625 18.042969 C 53.890625 20.148438 54.078125 22.777344 55.542969 22.871094 C 57.691406 23.007812 57.425781 25.777344 55.542969 25.777344 L 48.015625 25.777344 C 46.132812 25.777344 45.867188 23.019531 48.015625 22.882812 C 49.480469 22.789062 49.675781 20.148438 49.675781 18.042969 L 49.675781 12.75 C 49.675781 11.15625 49.097656 9.328125 47.046875 9.328125 Z M 70.3125 6.710938 L 76.753906 6.710938 L 83.347656 15.65625 C 84.355469 17.023438 84.507812 16.03125 84.507812 15.464844 C 84.507812 14.582031 84.738281 9.667969 82.390625 9.667969 C 81.832031 9.667969 81.3125 9.15625 81.320312 8.683594 C 81.332031 8.046875 81.320312 6.710938 81.320312 6.710938 L 90.957031 6.710938 C 90.957031 6.710938 90.945312 8.046875 90.957031 8.683594 C 90.964844 9.15625 90.4375 9.667969 89.878906 9.667969 C 88.335938 9.667969 88.386719 14.582031 88.386719 15.464844 L 88.386719 25.074219 C 88.386719 25.507812 88.109375 25.777344 87.679688 25.777344 C 87.253906 25.777344 85.191406 25.820312 85.191406 25.820312 C 83.777344 25.820312 82.765625 24.542969 82.097656 23.644531 C 80.316406 21.265625 78.953125 19.371094 77.15625 16.933594 L 77.15625 18.042969 C 77.15625 20.148438 77.34375 22.777344 78.808594 22.871094 C 80.957031 23.007812 80.691406 25.777344 78.808594 25.777344 L 71.28125 25.777344 C 69.398438 25.777344 69.132812 23.019531 71.28125 22.882812 C 72.746094 22.789062 72.945312 20.148438 72.945312 18.042969 L 72.945312 12.75 C 72.945312 11.15625 72.367188 9.328125 70.3125 9.328125 Z M 16.058594 9.921875 C 15.726562 9.921875 15.515625 9.953125 15.515625 9.953125 L 15.515625 14.792969 C 15.515625 14.792969 19.042969 15.28125 19.042969 12.375 C 19.042969 10.195312 17.054688 9.921875 16.058594 9.921875 Z M 5.132812 36.023438 L 94.867188 36.023438 L 94.867188 48.550781 C 94.867188 79.941406 70.949219 99.496094 50 116.398438 C 29.050781 99.496094 5.132812 79.941406 5.132812 48.550781 Z M 5.132812 36.023438 "/>
<path style=" stroke:none;fill-rule:nonzero;fill:rgb(0%,20%,50.196078%);fill-opacity:1;" d="M 49.0625 42.140625 L 42.441406 50.300781 C 42.816406 51.125 42.957031 52.0625 42.945312 52.925781 C 42.90625 55.101562 41.914062 57.9375 38.546875 57.9375 L 36.230469 57.9375 L 24.917969 71.863281 L 24.917969 71.882812 C 24.917969 75.085938 22.875 77.628906 19.617188 77.628906 L 19.617188 83.152344 L 40.996094 83.152344 L 40.996094 77.628906 C 37.453125 77.628906 35.351562 75.078125 35.351562 71.882812 L 35.351562 64.367188 C 50.015625 64.367188 53.347656 58.980469 53.316406 51.679688 C 53.300781 47.703125 52.320312 44.359375 49.0625 42.140625 Z M 49.0625 42.140625 "/>
<path style=" stroke:none;fill-rule:nonzero;fill:rgb(0%,20%,50.196078%);fill-opacity:1;" d="M 66.429688 58.785156 L 57.367188 69.902344 L 57.367188 71.882812 C 57.367188 75.046875 56.335938 77.628906 52.921875 77.628906 L 52.921875 83.152344 L 80.917969 83.152344 L 86.390625 68.070312 L 82.914062 65.625 C 80.347656 69.78125 76.269531 77.628906 69.457031 77.628906 C 66.5625 77.628906 66.429688 76.136719 66.429688 75.183594 Z M 66.429688 58.785156 "/>
<path style=" stroke:none;fill-rule:nonzero;fill:rgb(66.666667%,0%,0%);fill-opacity:1;" d="M 19.617188 39.210938 L 19.617188 45.472656 C 23.476562 45.472656 24.917969 47.179688 24.917969 49.625 L 24.917969 71.25 L 35.351562 56.648438 L 35.351562 47.925781 L 38.546875 47.925781 C 39.605469 47.925781 40.4375 48.199219 41.078125 48.640625 L 46.632812 40.871094 C 43.964844 39.808594 40.3125 39.210938 35.351562 39.210938 Z M 19.617188 39.210938 "/>
<path style=" stroke:none;fill-rule:nonzero;fill:rgb(66.666667%,0%,0%);fill-opacity:1;" d="M 52.921875 39.210938 L 52.921875 45.472656 C 57.324219 45.472656 57.367188 48.042969 57.367188 49.625 L 57.367188 68.996094 L 66.429688 56.75 L 66.429688 49.625 C 66.429688 47.152344 66.699219 45.472656 70.996094 45.472656 L 70.996094 39.210938 Z M 52.921875 39.210938 "/>
</g>
</svg>
